<svg width="100" height="100" viewBox="0 0 100 100" fill="none" xmlns="http://www.w3.org/2000/svg">
<path d="M0 87.1059C0 94.2277 5.77305 100 12.8941 100H87.1055C94.2277 100 100 94.227 100 87.1059V12.8945C100 5.77227 94.227 0 87.1059 0H12.8945C5.77227 0 0 5.77305 0 12.8941V87.1055V87.1059Z" fill="white"/>
<path d="M41.468 44.2336V30.0723H53.9332C55.1207 30.0723 56.2652 30.1711 57.3676 30.3691C58.4699 30.5668 59.4453 30.9199 60.2934 31.4289C61.141 31.9379 61.8195 32.6445 62.3285 33.5488C62.8371 34.4535 63.0918 35.6125 63.0918 37.0254C63.0918 39.5695 62.3285 41.407 60.802 42.5375C59.2758 43.6684 57.3254 44.2336 54.9508 44.2336H41.468V44.2336ZM28.1543 19.7266V80.2734H57.4949C60.2086 80.2734 62.8516 79.9344 65.4238 79.2559C67.9961 78.5773 70.2856 77.5316 72.2926 76.1184C74.2992 74.7051 75.8965 72.8816 77.0836 70.6488C78.2711 68.4156 78.8645 65.7727 78.8645 62.7199C78.8645 58.932 77.9457 55.6957 76.1086 53.0105C74.2711 50.325 71.4867 48.4453 67.7555 47.3711C70.4691 46.0711 72.5188 44.4031 73.9039 42.368C75.2887 40.3328 75.9813 37.7891 75.9813 34.7359C75.9813 31.9094 75.5148 29.5352 74.582 27.6129C73.6492 25.691 72.3348 24.1504 70.6387 22.9914C68.943 21.8324 66.9078 20.9984 64.5332 20.4898C62.159 19.9809 59.5301 19.7266 56.6469 19.7266H28.1543V19.7266ZM41.468 69.9277V53.307H55.9684C58.8516 53.307 61.1695 53.9711 62.9223 55.3C64.6746 56.6285 65.5512 58.8473 65.5512 61.9566C65.5512 63.5398 65.2824 64.8398 64.7453 65.8574C64.2082 66.875 63.4875 67.6809 62.5828 68.2742C61.6785 68.868 60.6324 69.2918 59.4453 69.5465C58.2578 69.8004 57.0145 69.9277 55.7141 69.9277H41.468V69.9277Z" fill="#563D7C"/>
</svg>
