<svg width="80" height="80" viewBox="0 0 80 80" fill="none" xmlns="http://www.w3.org/2000/svg">
<g clip-path="url(#clip0_6_53)">
<rect width="80" height="80" fill="black"/>
<path d="M39.995 0C17.91 0 2.30824e-05 17.98 2.30824e-05 40.16C-0.00900002 48.5777 2.62759 56.7854 7.53718 63.6232C12.4468 70.4609 19.3811 75.5828 27.36 78.265C29.36 78.635 30.09 77.395 30.09 76.33C30.09 75.375 30.055 72.85 30.035 69.5C18.91 71.925 16.56 64.115 16.56 64.115C14.745 59.475 12.12 58.24 12.12 58.24C8.48502 55.75 12.39 55.8 12.39 55.8C16.405 56.085 18.515 59.94 18.515 59.94C22.085 66.075 27.88 64.305 30.16 63.275C30.52 60.68 31.555 58.91 32.7 57.905C23.82 56.89 14.48 53.445 14.48 38.06C14.48 33.675 16.04 30.09 18.6 27.28C18.185 26.265 16.815 22.18 18.99 16.655C18.99 16.655 22.35 15.575 29.99 20.77C33.2538 19.8781 36.6216 19.4241 40.005 19.42C43.3886 19.4267 46.7563 19.8824 50.02 20.775C57.655 15.58 61.01 16.66 61.01 16.66C63.19 22.19 61.82 26.27 61.41 27.285C63.975 30.095 65.52 33.68 65.52 38.065C65.52 53.49 56.17 56.885 47.26 57.88C48.695 59.12 49.975 61.57 49.975 65.315C49.975 70.685 49.925 75.015 49.925 76.33C49.925 77.405 50.645 78.655 52.675 78.26C60.6462 75.5714 67.5719 70.4476 72.4747 63.6115C77.3774 56.7755 80.0097 48.5724 80 40.16C80 17.98 62.09 0 39.995 0Z" fill="white"/>
</g>
<defs>
<clipPath id="clip0_6_53">
<rect width="80" height="80" fill="white"/>
</clipPath>
</defs>
</svg>
