<svg width="215" height="215" viewBox="0 0 215 215" fill="none" xmlns="http://www.w3.org/2000/svg">
<rect width="215" height="215" fill="#0101FF"/>
<path d="M58.5158 175.171C57.2079 175.171 56.0433 175.091 55.0579 174.938V179.283C57.0825 180.089 58.7577 180.492 60.1283 180.492C65.2615 180.492 69.9915 177.357 74.3094 171.059C79.8277 162.907 84.289 149.819 87.6752 131.831H79.7919C78.3854 142.876 75.895 153.107 72.3117 162.459C72.5625 160.587 71.9444 157.299 70.4752 152.587L63.9625 131.831H55.8104L64.8942 159.593C66.2648 163.758 66.9546 166.535 66.9546 167.897C66.9546 169.859 66.0767 171.633 64.3119 173.218C62.8427 174.508 60.9167 175.171 58.5158 175.171Z" fill="white"/>
<path d="M174.526 119.083V167.718H198.087V161.734H182.454V119.083H174.526Z" fill="white"/>
<path d="M9.31667 128.928H9.40625L21.9479 167.718H28.2635L40.8948 128.928H40.9665C42.2833 141.067 43.1165 153.976 43.3852 167.718H51.6896H51.7165C51.3223 153.026 50.0502 136.803 47.8823 119.083H38.0729L26.006 154.827H25.9344L13.975 119.083H3.67292C1.72 134.205 0.492708 150.428 0 167.718H7.56979C7.81167 153.492 8.39396 140.565 9.31667 128.928ZM167.333 142.491C167.333 126.402 160.901 118.34 148.027 118.34C141.721 118.34 136.794 120.382 133.246 124.467C129.394 128.937 127.459 135.513 127.459 144.211C127.459 152.758 129.161 159.037 132.601 163.033C135.737 166.643 140.458 168.444 146.782 168.444C149.147 168.444 151.315 168.157 153.277 167.584L165.147 174.374L168.372 168.909H168.345L159.243 164.511C160.05 163.839 160.829 163.122 161.528 162.316C165.407 157.855 167.333 151.244 167.333 142.491ZM147.597 162.424C143.611 162.424 140.7 160.954 138.836 158.025L138.854 157.98C136.839 154.818 135.835 149.712 135.835 142.715C135.835 130.46 139.634 124.333 147.212 124.333C151.181 124.333 154.11 125.802 155.965 128.731C157.971 131.911 158.975 136.964 158.975 143.889C158.975 156.233 155.176 162.424 147.597 162.424ZM118.25 143.996C118.25 143.996 111.137 139.992 107.616 138.102C103.746 135.988 101.65 133.506 101.65 130.63C101.65 128.749 102.501 127.217 103.872 126.017C105.234 124.799 107.195 124.207 109.731 124.207C112.857 124.207 116.037 124.888 119.262 126.232L121.17 122.048C117.408 119.639 113.215 118.447 108.629 118.447C104.15 118.447 100.521 119.648 97.6996 122.093C94.8956 124.512 93.4892 127.674 93.4892 131.634C93.4892 136.391 95.3704 139.284 99.1508 141.99C99.1508 141.99 106.094 145.895 109.569 147.768C113.314 149.837 115.374 152.301 115.374 155.203C115.374 157.496 114.371 159.315 112.687 160.614C110.985 161.904 108.647 162.549 105.672 162.549C102.474 162.549 98.9358 161.599 95.0121 159.664L92.889 163.848C97.4488 166.867 102.116 168.381 106.98 168.381C112.185 168.381 116.297 167.064 119.379 164.421C122.46 161.788 124.001 158.392 124.001 154.254L124.055 154.28C124.055 149.541 122.129 146.684 118.25 143.996ZM146.961 51.6717C145.931 51.6717 145.232 51.7971 144.507 51.9583V52.0748H144.632C145.116 52.9885 145.94 53.6604 146.549 54.4756C147.033 55.4162 147.445 56.3569 147.929 57.2885L148.054 57.1542C148.896 56.5719 149.309 55.6402 149.309 54.2248C148.95 53.8127 148.896 53.4006 148.592 52.9975C148.234 52.4062 147.463 52.1196 146.979 51.6537L146.961 51.6717Z" fill="white"/>
<path d="M212.268 118.25C210.53 115.966 208.371 113.968 206.042 112.311C204.125 111.03 199.932 109.229 199.144 107.079L199.027 106.954C200.335 106.837 201.894 106.371 203.148 106.022C205.182 105.493 207.045 105.61 209.15 105.09C210.1 104.857 211.058 104.562 212.017 104.266V103.737C210.942 102.68 210.136 101.247 209.025 100.262C205.979 97.6637 202.602 95.1464 199.135 93.0233C197.254 91.8408 194.871 91.0883 192.891 90.085C192.174 89.7356 190.974 89.5564 190.562 88.9652C189.487 87.6841 188.86 85.9731 188.098 84.4412C186.378 81.2073 184.694 77.6239 183.198 74.2108C182.123 71.9085 181.469 69.6152 180.152 67.501C173.971 57.5035 167.279 51.4387 156.986 45.5173C154.773 44.29 152.121 43.7614 149.317 43.1075C147.821 43.0358 146.325 42.9283 144.838 42.8656C143.853 42.4535 142.903 41.3337 142.061 40.7962C138.657 38.6821 129.842 34.1133 127.334 40.1602C125.721 43.9764 129.726 47.7389 131.114 49.6739C132.144 51.0177 133.443 52.5585 134.16 54.0725C134.581 55.0937 134.697 56.1419 135.119 57.2079C136.068 59.7969 136.973 62.6725 138.227 65.1002C138.881 66.3275 139.598 67.6264 140.44 68.7283C140.924 69.3733 141.748 69.6689 141.936 70.726C141.094 71.9264 141.04 73.6644 140.556 75.1246C138.406 81.7806 139.248 90.0133 142.294 94.9135C143.253 96.3737 145.537 99.6077 148.592 98.3714C151.279 97.3144 150.688 93.9729 151.459 91.0256C151.638 90.3179 151.521 89.8521 151.889 89.3773V89.5116C152.731 91.1689 153.573 92.7366 154.343 94.3939C156.189 97.2785 159.414 100.271 162.11 102.268C163.543 103.325 164.681 105.153 166.473 105.807V105.628H166.338C165.953 105.117 165.442 104.875 164.959 104.454C163.884 103.397 162.674 102.107 161.823 100.934C159.315 97.6189 157.102 93.9819 155.131 90.2194C154.146 88.3739 153.322 86.3852 152.534 84.5666C152.175 83.8679 152.175 82.8108 151.575 82.4525C150.679 83.7335 149.362 84.8533 148.708 86.4389C147.571 88.9742 147.454 92.0827 147.024 95.3256C146.782 95.3883 146.899 95.3256 146.782 95.451C144.865 94.9941 144.211 93.0412 143.495 91.4019C141.703 87.2273 141.407 80.5175 142.957 75.6979C143.378 74.4706 145.17 70.5827 144.453 69.4002C144.077 68.2804 142.894 67.6444 142.24 66.7396C141.461 65.6467 140.628 64.2312 140.09 62.986C138.657 59.6983 137.94 56.0523 136.382 52.7646C135.665 51.2417 134.411 49.6471 133.39 48.2496C132.252 46.6639 130.998 45.5531 130.093 43.6719C129.797 43.0269 129.376 41.9608 129.851 41.2621C129.976 40.7873 130.227 40.5992 130.693 40.4737C131.481 39.8377 133.694 40.6708 134.474 41.0202C136.686 41.8981 138.55 42.7223 140.404 43.9585C141.246 44.5408 142.151 45.6517 143.226 45.9473H144.48C146.397 46.3594 148.556 46.0727 150.348 46.5923C153.528 47.5956 156.395 49.0558 158.966 50.6414C166.813 55.5327 173.263 62.4664 177.644 70.7439C178.36 72.0967 178.674 73.3419 179.328 74.7483C180.582 77.6508 182.132 80.5802 183.404 83.3841C184.658 86.1523 185.867 88.9831 187.668 91.2764C188.564 92.5037 192.165 93.1487 193.778 93.7937C194.969 94.3223 196.824 94.806 197.899 95.451C199.959 96.6783 201.966 98.0937 203.901 99.4464C204.886 100.118 207.869 101.587 208.048 102.77C203.256 102.645 199.538 103.119 196.429 104.427C195.534 104.777 194.1 104.777 193.975 105.896C194.467 106.362 194.539 107.124 194.96 107.778C195.677 108.951 196.913 110.528 198.06 111.361C199.314 112.329 200.568 113.26 201.885 114.084C204.214 115.491 206.857 116.324 209.141 117.739C210.44 118.564 211.766 119.612 213.083 120.49C213.737 120.929 214.158 121.726 215 122.004V121.833C214.588 121.305 214.462 120.543 214.059 119.952C213.459 119.361 212.859 118.832 212.268 118.25Z" fill="white"/>
</svg>
