<svg width="201" height="201" viewBox="0 0 201 201" fill="none" xmlns="http://www.w3.org/2000/svg">
<g clip-path="url(#clip0_30_13)">
<rect width="201" height="201" fill="#336791"/>
<path d="M155.85 146.671C151.981 146.671 148.388 146.177 146.144 144.804C144.167 143.598 143.539 141.027 144.745 139.05C145.96 137.065 148.531 136.437 150.507 137.652C153.338 139.335 167.961 137.409 170.917 136.035C179.644 133.464 182.918 129.787 183.722 127.903C183.002 128.062 182.131 128.288 181.361 128.489C177.709 129.436 172.718 130.759 166.411 130.441C159.2 130.097 154.762 127.752 153.422 126.555C151.696 125.014 151.537 122.376 153.078 120.65C154.577 118.967 157.132 118.774 158.849 120.181C159.15 120.357 161.763 121.831 166.813 122.082C171.847 122.283 175.95 121.236 179.242 120.382C183.228 119.335 187.349 118.255 190.238 121.463C192.181 123.623 192.784 126.663 191.888 129.804C190.171 135.834 183.446 141.069 173.899 143.816C172.023 144.787 163.396 146.671 155.85 146.671ZM49.1361 142.082C45.9536 142.082 42.8046 140.641 39.7561 137.794C32.7798 131.379 26.7581 117.92 23.8018 110.458C19.8488 100.215 16.013 87.5941 12.9896 74.8725C10.318 64.052 8.71 54.5883 8.50062 50.8363C7.638 34.17 11.3314 21.6243 19.4719 13.5424C25.8118 7.15226 35.0578 3.56776 46.9335 2.88938C49.3874 2.70513 52.4024 2.71351 54.672 2.89776C65.459 3.33326 75.8942 6.22263 82.7785 8.35826C84.9895 9.04501 86.229 11.3816 85.5422 13.601C84.8555 15.8036 82.5272 17.0599 80.3079 16.3564C76.2041 15.0918 65.2999 11.6999 54.1528 11.256C53.0138 11.1639 51.8915 11.189 50.7525 11.1639C49.6638 11.1471 48.5499 11.1555 47.4946 11.2393C37.5284 11.8088 30.3259 14.5055 25.393 19.4635C18.9945 25.8201 16.1303 36.2135 16.8589 50.3924C17.018 53.1813 18.4418 62.0169 21.1218 72.9044C24.0698 85.2994 27.7799 97.5353 31.5905 107.401C36.1633 118.925 41.2134 127.777 45.4428 131.655C46.4896 132.627 47.8548 133.858 49.2115 133.699C49.7475 133.673 51.2718 133.33 53.6754 130.617C56.2884 127.71 60.3251 123.372 64.0688 119.335L70.8274 112.032C72.3935 110.332 75.04 110.207 76.7485 111.773C78.457 113.339 78.5743 115.985 77.0165 117.694L70.216 125.039C66.5059 129.034 62.5026 133.338 59.9315 136.194C56.6234 139.921 53.1394 141.914 49.5968 142.065C49.4376 142.074 49.2869 142.082 49.1361 142.082Z" fill="white"/>
<path d="M118.69 201.008C113.942 201.008 110.048 199.61 106.706 196.746C103.155 193.689 101.204 189.543 99.7714 185.883C99.1098 184.217 98.5486 180.749 98.2387 178.053C97.8619 174.652 97.552 170.364 97.351 165.524C97.1165 159.217 96.9909 152.902 96.9909 146.563C96.9909 141.203 97.083 135.884 97.2254 131.345C96.9993 130.315 96.8652 129.746 96.6642 129.201C96.1952 127.92 95.0479 125.583 92.7615 124.62C92.326 124.427 91.924 124.201 91.4801 123.942C90.7766 123.523 90.5003 123.381 89.9308 123.381C88.4903 123.766 86.832 123.364 85.7851 122.3C84.7466 121.245 84.1939 119.771 84.5707 118.339C85.4334 115.098 86.4803 111.898 87.5104 109.344C87.9375 108.155 88.5405 106.773 89.2021 105.282C92.594 97.5353 97.2337 86.9325 92.2339 63.3569C91.3042 59.0019 88.9509 55.8696 85.6009 54.5464C82.6612 53.3822 79.06 53.3404 74.5794 54.3789C69.7721 55.5179 65.8778 57.5027 63.9766 58.5915C62.6115 59.362 60.9281 59.3201 59.6216 58.4575C58.3068 57.6116 57.5781 56.0874 57.7373 54.538C57.7875 53.9601 59.1694 40.5266 62.3854 31.8501C65.5762 23.1987 70.1406 16.3061 75.9529 11.3565C83.1135 5.29299 91.7146 2.33662 102.259 2.31149C102.259 2.31149 102.259 2.32824 102.267 2.32824H103.28C122.836 2.65487 139.645 11.2811 151.956 27.2774C155.917 32.4112 159.117 37.9304 161.738 44.153C162.19 45.2417 162.433 46.0122 162.659 46.766C163.07 48.106 162.902 49.9569 162.006 51.0372C161.118 52.126 159.837 53.0472 158.463 52.93C149.72 52.0171 143.723 53.3906 140.666 56.9751C137.769 60.3419 137.25 65.6014 139.075 73.0635C140.859 80.3581 144.444 87.7951 146.973 92.7531C148.263 95.2656 149.502 97.5353 150.549 99.4699L150.842 100.006C150.867 100.048 150.892 100.09 150.918 100.132C151.755 101.614 152.559 103.096 153.505 105.09C154.979 108.59 156.671 111.438 158.715 113.975C158.748 114.009 158.782 114.051 158.815 114.093C158.815 114.101 158.824 114.109 158.832 114.118C159.611 115.114 160.365 116.128 161.21 117.351C161.964 118.464 162.148 119.871 161.696 121.128C161.244 122.392 160.214 123.372 158.924 123.741C158.438 123.883 157.86 124.067 157.232 124.352C156.512 124.687 155.147 125.499 154.309 127.074C153.43 128.707 153.061 131.06 153.195 134.05C152.777 140.013 149.544 167.416 147.944 176.939C146.722 184.166 144.678 188.974 141.328 192.499C137.836 196.184 132.936 198.58 125.432 200.221C123.004 200.749 120.767 201.008 118.69 201.008ZM105.391 129.746C105.466 129.746 105.6 130.566 105.6 131.37C105.458 136.069 105.366 141.311 105.366 146.563C105.366 152.802 105.5 158.999 105.718 165.189C105.91 169.795 106.203 173.882 106.563 177.115C106.924 180.331 107.401 182.382 107.568 182.826C108.624 185.523 109.997 188.538 112.158 190.389C113.95 191.93 116.865 193.504 123.623 192.03C129.385 190.766 132.97 189.124 135.24 186.729C137.384 184.468 138.749 181.017 139.678 175.532C141.219 166.42 144.435 139.126 144.829 133.908C144.611 129.821 145.298 126.119 146.923 123.096C147.969 121.136 149.502 119.428 151.345 118.104C149.201 115.257 147.4 112.125 145.976 108.775C145.239 107.192 144.611 105.994 143.983 104.855C143.916 104.746 143.849 104.646 143.79 104.528L143.799 104.52C143.79 104.503 143.782 104.487 143.774 104.47H143.765C143.732 104.411 143.707 104.353 143.682 104.294C143.673 104.277 143.665 104.26 143.648 104.244V104.235C143.531 103.967 143.439 103.691 143.372 103.398L143.196 103.44C142.124 101.463 140.851 99.1181 139.527 96.5386C135.189 88.0715 132.459 81.2375 130.943 75.0316C128.439 64.7555 129.545 57.0672 134.318 51.5062C138.33 46.8079 144.352 44.421 152.634 44.2702C150.583 39.9822 148.179 36.0627 145.323 32.3694C134.469 18.2575 120.299 10.9629 103.214 10.6781H102.259C93.7833 10.6865 86.9492 12.9812 81.3715 17.7215C76.6815 21.7164 72.9295 27.4365 70.2411 34.7311C68.8174 38.5836 67.7705 43.7259 67.0838 47.9134C68.943 47.2182 70.819 46.6487 72.6615 46.2132C78.859 44.7309 84.1101 44.9319 88.6913 46.7409C94.6543 49.0942 98.9339 54.5129 100.45 61.5898C106.002 87.8035 100.517 100.324 96.8904 108.615C96.3125 109.939 95.7765 111.161 95.3494 112.317C94.9139 113.389 94.4784 114.578 94.068 115.826C94.7631 116.128 95.3242 116.454 95.7346 116.697C99.8886 118.515 102.912 121.865 104.545 126.312C104.939 127.434 105.215 128.573 105.391 129.746Z" fill="white"/>
<path d="M88.6326 123.615C79.6044 123.615 70.8441 119.444 64.5964 112.175C58.2565 104.788 55.4425 95.1484 56.8746 85.7098C57.8294 79.0684 58.2062 72.1087 57.9969 65.0402C57.9047 59.6467 57.7289 55.1075 57.7289 55.0908C57.6367 52.7876 59.4374 50.8279 61.7489 50.7358C64.052 50.7693 66.0117 52.4443 66.0955 54.7558C66.0955 54.7558 66.2797 59.3871 66.3719 64.8309C66.598 72.3349 66.196 79.7719 65.1659 86.9241C64.0939 93.9842 66.2044 101.178 70.953 106.697C75.6095 112.116 82.0582 115.232 88.6326 115.232C90.9441 115.232 92.8201 117.108 92.8201 119.419C92.8201 121.731 90.9525 123.615 88.6326 123.615ZM157.785 123.9C156.679 123.9 155.616 123.456 154.82 122.677C153.112 120.968 153.363 119.57 154.309 114.369C155.189 109.478 156.679 101.287 156.897 93.7749C156.989 88.775 156.445 83.9259 155.968 79.6546C155.557 76.0115 155.205 72.8709 155.298 70.1741C155.557 62.6785 155.733 57.7456 154.695 49.2282C154.418 46.9335 156.051 44.8481 158.346 44.5634C160.683 44.2284 162.726 45.9117 163.011 48.2149C164.125 57.3855 163.932 62.8711 163.664 70.4589C163.597 72.5359 163.916 75.4001 164.292 78.7082C164.803 83.2391 165.381 88.373 165.281 93.9675C165.222 95.8519 165.105 97.7446 164.929 99.629C170.381 88.641 175.439 75.2912 180.222 59.3034C182.768 50.6855 184.158 42.8549 184.242 36.6992C184.334 30.1584 182.86 27.068 182.282 26.4231C171.537 14.5557 156.185 8.49225 136.672 8.375H135.181C132.149 8.42525 128.916 9.45537 125.508 10.5441C123.062 11.323 120.65 12.0851 118.272 12.529C116.019 12.9561 113.808 11.4654 113.381 9.19575C112.954 6.92613 114.444 4.73187 116.714 4.30475C118.774 3.91113 120.851 3.24112 122.962 2.56275C126.806 1.33162 130.784 0.067 135.122 0H136.697C158.681 0.125625 176.101 7.12712 188.496 20.8035C191.218 23.8185 192.717 29.6559 192.617 36.8081C192.516 43.7259 191.009 52.3354 188.245 61.6903C180.247 88.4233 171.394 108.213 161.16 122.191C160.44 123.171 159.318 123.791 158.103 123.883C158.003 123.9 157.894 123.9 157.785 123.9Z" fill="white"/>
<path d="M76.5642 150.901C69.0435 150.901 64.1441 149.293 61.6651 146.027C60.0906 143.958 59.7137 141.32 60.6434 138.983C62.042 135.474 65.6265 134.494 69.0937 133.548C71.221 132.961 73.633 132.3 76.179 131.069C81.07 128.699 88.7415 120.809 91.2959 117.979C92.8369 116.262 95.4917 116.119 97.2086 117.66C98.9339 119.21 99.0762 121.848 97.5269 123.573C96.48 124.746 87.0665 135.106 79.8221 138.615C76.5894 140.181 73.6665 140.976 71.3131 141.621C71.0284 141.705 70.7101 141.789 70.4002 141.873C72.4186 142.417 76.2292 142.852 83.1721 142.14C94.1685 140.976 97.3091 133.606 97.4431 133.296C98.3141 131.169 100.718 130.114 102.87 130.968C104.997 131.814 106.069 134.193 105.249 136.337C105.056 136.847 100.324 148.748 84.0515 150.474C81.3045 150.758 78.8171 150.901 76.5642 150.901ZM95.5922 71.2545C92.2255 71.2545 85.4836 70.618 80.3497 66.0285C76.0534 62.2011 73.8759 56.6569 73.8759 49.5632C73.8759 47.2517 75.7519 45.3757 78.0634 45.3757C80.3749 45.3757 82.2509 47.2517 82.2509 49.5632C82.2509 54.1444 83.4736 57.5697 85.8856 59.7472C90.0396 63.4909 96.6894 62.8376 96.7647 62.8376C99.0511 62.5361 101.12 64.253 101.371 66.5394C101.622 68.8341 99.9807 70.9027 97.6944 71.1624C97.5771 71.1707 96.8066 71.2545 95.5922 71.2545ZM133.891 71.3047C131.58 71.3047 129.704 69.4287 129.704 67.1172C129.704 64.8057 131.58 62.9297 133.891 62.9297C137.995 62.9297 140.985 61.8494 143.028 59.6132C146.705 55.6016 146.253 49.0272 146.253 48.9686C146.052 46.6655 147.76 44.6304 150.063 44.4377C152.366 44.2535 154.401 45.9452 154.594 48.2484C154.628 48.6671 155.406 58.5245 149.201 65.2831C145.541 69.2696 140.39 71.3047 133.891 71.3047Z" fill="white"/>
</g>
<defs>
<clipPath id="clip0_30_13">
<rect width="201" height="201" fill="white"/>
</clipPath>
</defs>
</svg>
