<svg width="77" height="72" viewBox="0 0 77 72" fill="none" xmlns="http://www.w3.org/2000/svg">
<g clip-path="url(#clip0_39_16)">
<path d="M15.4861 42.1102V66H6.97697V6.88918H26.3588C32.2206 6.88918 35.1515 9.65902 35.1515 15.1987V33.7062C35.1515 38.4905 33.04 41.2289 28.817 41.9213L38.177 66H29.0061L20.1188 42.1102H15.4861ZM15.4861 13.7823V35.3115H23.8061C24.9406 35.3115 25.697 35.1541 26.0751 34.8393C26.4533 34.4616 26.6424 33.7062 26.6424 32.5731V16.5207C26.6424 15.3875 26.4533 14.6636 26.0751 14.3489C25.697 13.9711 24.9406 13.7823 23.8061 13.7823H15.4861ZM61.4809 56.3685V41.9213C61.4809 40.7882 61.2919 40.0643 60.9137 39.7495C60.5985 39.3718 59.8737 39.183 58.7391 39.183H51.7428C46.007 39.183 43.1391 36.3816 43.1391 30.779V15.1987C43.1391 9.65902 46.07 6.88918 51.9319 6.88918H61.1973C67.0591 6.88918 69.99 9.65902 69.99 15.1987V23.8859H61.3864V16.5207C61.3864 15.3875 61.1973 14.6636 60.8191 14.3489C60.4409 13.9711 59.6846 13.7823 58.55 13.7823H54.5791C53.4446 13.7823 52.6882 13.9711 52.31 14.3489C51.9319 14.6636 51.7428 15.3875 51.7428 16.5207V29.6459C51.7428 30.779 51.9319 31.5344 52.31 31.9121C52.6882 32.2269 53.4446 32.3843 54.5791 32.3843H61.4809C67.2797 32.3843 70.1791 35.1541 70.1791 40.6938V57.6905C70.1791 63.2302 67.2167 66 61.2919 66H52.1209C46.2591 66 43.3282 63.2302 43.3282 57.6905V49.0033H51.9319V56.3685C51.9319 57.5016 52.1209 58.257 52.4991 58.6348C52.8773 58.9495 53.6337 59.1069 54.7682 59.1069H58.7391C59.8737 59.1069 60.5985 58.9495 60.9137 58.6348C61.2919 58.257 61.4809 57.5016 61.4809 56.3685Z" fill="#DC143C"/>
</g>
<path d="M76 1H1V71H76V1Z" stroke="#DC143C" stroke-width="2"/>
<defs>
<clipPath id="clip0_39_16">
<rect width="65" height="60" fill="white" transform="translate(6 6)"/>
</clipPath>
</defs>
</svg>
